<svg width="101" height="19" viewBox="0 0 101 19" fill="none" xmlns="http://www.w3.org/2000/svg">
<path d="M49 1C44.5951 1 41 4.59515 41 9.00001C41 13.4049 44.5951 17 49 17C53.4049 17 57 13.4049 57 9.00001C57 4.59515 53.4049 1 49 1ZM43.2348 9.00001C43.2348 7.34818 43.9474 5.82592 45.081 4.78948C45.5344 4.36843 46.3117 4.49798 46.6356 5.04858L48.6437 8.51418C48.8381 8.83806 48.8381 9.22672 48.6437 9.55061L46.6356 13.0162C46.3117 13.5992 45.5344 13.6964 45.0486 13.2429C43.9474 12.1417 43.2348 10.6518 43.2348 9.00001ZM51.3644 12.9514L49.3563 9.48584C49.1619 9.16195 49.1619 8.77328 49.3563 8.44939L51.3644 4.9838C51.6883 4.43319 52.4332 4.30364 52.919 4.7247C54.0526 5.76113 54.7652 7.2834 54.7652 8.93522C54.7652 10.587 54.0526 12.1093 52.919 13.1458C52.4332 13.664 51.6883 13.5344 51.3644 12.9514Z" fill="white"/>
<path d="M7.47186 6.56254C7.41883 6.06633 7.19535 5.67996 6.80141 5.40345C6.41126 5.12693 5.90368 4.98868 5.27868 4.98868C4.83929 4.98868 4.46239 5.05496 4.148 5.18754C3.8336 5.32012 3.59307 5.50004 3.42641 5.72731C3.25974 5.95459 3.17451 6.21406 3.17072 6.50572C3.17072 6.74815 3.22565 6.95837 3.3355 7.1364C3.44913 7.31443 3.60254 7.46595 3.79572 7.59095C3.98891 7.71216 4.20292 7.81443 4.43777 7.89777C4.67262 7.9811 4.90936 8.05118 5.148 8.10799L6.23891 8.38072C6.6783 8.48299 7.10065 8.62125 7.50595 8.79549C7.91504 8.96974 8.28057 9.18943 8.60254 9.45459C8.9283 9.71974 9.18588 10.0398 9.37527 10.4148C9.56466 10.7898 9.65936 11.2292 9.65936 11.733C9.65936 12.4148 9.48512 13.0152 9.13663 13.5341C8.78815 14.0492 8.28436 14.4527 7.62527 14.7443C6.96997 15.0322 6.17641 15.1761 5.24459 15.1761C4.33929 15.1761 3.5533 15.036 2.88663 14.7557C2.22375 14.4754 1.70482 14.0663 1.32982 13.5284C0.958599 12.9905 0.757842 12.3352 0.727539 11.5625H2.80141C2.83171 11.9678 2.95671 12.3049 3.17641 12.5739C3.3961 12.8428 3.68209 13.0436 4.03436 13.1761C4.39042 13.3087 4.78815 13.375 5.22754 13.375C5.68588 13.375 6.08739 13.3068 6.43209 13.1705C6.78057 13.0303 7.0533 12.8371 7.25027 12.5909C7.44724 12.3409 7.54762 12.0492 7.55141 11.7159C7.54762 11.4129 7.4586 11.1629 7.28436 10.9659C7.11012 10.7652 6.8658 10.5985 6.55141 10.4659C6.2408 10.3295 5.87716 10.2083 5.4605 10.1023L4.13663 9.7614C3.1783 9.51519 2.42072 9.14209 1.86391 8.64209C1.31088 8.1383 1.03436 7.46974 1.03436 6.6364C1.03436 5.9508 1.21997 5.35042 1.59118 4.83527C1.96618 4.32012 2.47565 3.92049 3.11959 3.6364C3.76353 3.34852 4.49269 3.20459 5.30709 3.20459C6.13285 3.20459 6.85633 3.34852 7.47754 3.6364C8.10254 3.92049 8.59307 4.31633 8.94913 4.8239C9.30519 5.32769 9.48891 5.90724 9.50027 6.56254H7.47186ZM12.8455 15H10.5955L14.6921 3.36368H17.2943L21.3966 15H19.1466L16.0387 5.75004H15.9477L12.8455 15ZM12.9193 10.4375H19.0557V12.1307H12.9193V10.4375ZM22.9293 3.36368H25.5088L28.9634 11.7955H29.0997L32.5543 3.36368H35.1338V15H33.1111V7.00572H33.0031L29.7872 14.9659H28.2759L25.06 6.98868H24.952V15H22.9293V3.36368Z" fill="#0A0A0A"/>
<path d="M63.6416 15H61.3916L65.4882 3.36368H68.0905L72.1928 15H69.9428L66.8348 5.75004H66.7439L63.6416 15ZM63.7155 10.4375H69.8519V12.1307H63.7155V10.4375ZM71.7425 3.36368H74.1232L76.9698 8.5114H77.0834L79.93 3.36368H82.3107L78.0777 10.6591V15H75.9755V10.6591L71.7425 3.36368ZM93.5451 9.18186C93.5451 10.4356 93.3102 11.5095 92.8405 12.4034C92.3746 13.2936 91.7382 13.9754 90.9314 14.4489C90.1284 14.9223 89.2174 15.1591 88.1985 15.1591C87.1795 15.1591 86.2666 14.9223 85.4598 14.4489C84.6568 13.9716 84.0204 13.2879 83.5507 12.3977C83.0848 11.5038 82.8519 10.4318 82.8519 9.18186C82.8519 7.92807 83.0848 6.8561 83.5507 5.96595C84.0204 5.07201 84.6568 4.3883 85.4598 3.91481C86.2666 3.44133 87.1795 3.20459 88.1985 3.20459C89.2174 3.20459 90.1284 3.44133 90.9314 3.91481C91.7382 4.3883 92.3746 5.07201 92.8405 5.96595C93.3102 6.8561 93.5451 7.92807 93.5451 9.18186ZM91.4257 9.18186C91.4257 8.29928 91.2875 7.55496 91.011 6.9489C90.7382 6.33906 90.3594 5.87883 89.8746 5.56822C89.3898 5.25383 88.831 5.09663 88.1985 5.09663C87.5659 5.09663 87.0072 5.25383 86.5223 5.56822C86.0375 5.87883 85.6568 6.33906 85.3803 6.9489C85.1076 7.55496 84.9712 8.29928 84.9712 9.18186C84.9712 10.0644 85.1076 10.8106 85.3803 11.4205C85.6568 12.0265 86.0375 12.4867 86.5223 12.8011C87.0072 13.1117 87.5659 13.267 88.1985 13.267C88.831 13.267 89.3898 13.1117 89.8746 12.8011C90.3594 12.4867 90.7382 12.0265 91.011 11.4205C91.2875 10.8106 91.4257 10.0644 91.4257 9.18186Z" fill="#0A0A0A"/>
<path d="M99 15C100.105 15 101 14.1046 101 13C101 11.8954 100.105 11 99 11C97.8954 11 97 11.8954 97 13C97 14.1046 97.8954 15 99 15Z" fill="white"/>
</svg>
