<svg width="101" height="19" viewBox="0 0 101 19" fill="none" xmlns="http://www.w3.org/2000/svg">
<path d="M49 1C44.5951 1 41 4.59515 41 9.00001C41 13.4049 44.5951 17 49 17C53.4049 17 57 13.4049 57 9.00001C57 4.59515 53.4049 1 49 1ZM43.2348 9.00001C43.2348 7.34818 43.9474 5.82592 45.081 4.78948C45.5344 4.36843 46.3117 4.49798 46.6356 5.04858L48.6437 8.51418C48.8381 8.83806 48.8381 9.22672 48.6437 9.55061L46.6356 13.0162C46.3117 13.5992 45.5344 13.6964 45.0486 13.2429C43.9474 12.1417 43.2348 10.6518 43.2348 9.00001ZM51.3644 12.9514L49.3563 9.48584C49.1619 9.16195 49.1619 8.77328 49.3563 8.44939L51.3644 4.9838C51.6883 4.43319 52.4332 4.30364 52.919 4.7247C54.0526 5.76113 54.7652 7.2834 54.7652 8.93522C54.7652 10.587 54.0526 12.1093 52.919 13.1458C52.4332 13.664 51.6883 13.5344 51.3644 12.9514Z" fill="#E7C285"/>
<path d="M7.47159 6.5625C7.41856 6.06629 7.19508 5.67992 6.80114 5.40341C6.41099 5.12689 5.90341 4.98864 5.27841 4.98864C4.83902 4.98864 4.46212 5.05492 4.14773 5.1875C3.83333 5.32008 3.5928 5.5 3.42614 5.72727C3.25947 5.95455 3.17424 6.21402 3.17045 6.50568C3.17045 6.74811 3.22538 6.95833 3.33523 7.13636C3.44886 7.31439 3.60227 7.46591 3.79545 7.59091C3.98864 7.71212 4.20265 7.81439 4.4375 7.89773C4.67235 7.98106 4.90909 8.05114 5.14773 8.10795L6.23864 8.38068C6.67803 8.48295 7.10038 8.62121 7.50568 8.79545C7.91477 8.9697 8.2803 9.18939 8.60227 9.45455C8.92803 9.7197 9.18561 10.0398 9.375 10.4148C9.56439 10.7898 9.65909 11.2292 9.65909 11.733C9.65909 12.4148 9.48485 13.0152 9.13636 13.5341C8.78788 14.0492 8.28409 14.4527 7.625 14.7443C6.9697 15.0322 6.17614 15.1761 5.24432 15.1761C4.33902 15.1761 3.55303 15.036 2.88636 14.7557C2.22348 14.4754 1.70455 14.0663 1.32955 13.5284C0.958333 12.9905 0.757576 12.3352 0.727273 11.5625H2.80114C2.83144 11.9678 2.95644 12.3049 3.17614 12.5739C3.39583 12.8428 3.68182 13.0436 4.03409 13.1761C4.39015 13.3087 4.78788 13.375 5.22727 13.375C5.68561 13.375 6.08712 13.3068 6.43182 13.1705C6.7803 13.0303 7.05303 12.8371 7.25 12.5909C7.44697 12.3409 7.54735 12.0492 7.55114 11.7159C7.54735 11.4129 7.45833 11.1629 7.28409 10.9659C7.10985 10.7652 6.86553 10.5985 6.55114 10.4659C6.24053 10.3295 5.87689 10.2083 5.46023 10.1023L4.13636 9.76136C3.17803 9.51515 2.42045 9.14205 1.86364 8.64205C1.31061 8.13826 1.03409 7.4697 1.03409 6.63636C1.03409 5.95076 1.2197 5.35038 1.59091 4.83523C1.96591 4.32008 2.47538 3.92045 3.11932 3.63636C3.76326 3.34848 4.49242 3.20455 5.30682 3.20455C6.13258 3.20455 6.85606 3.34848 7.47727 3.63636C8.10227 3.92045 8.5928 4.31629 8.94886 4.82386C9.30492 5.32765 9.48864 5.9072 9.5 6.5625H7.47159ZM12.8452 15H10.5952L14.6918 3.36364H17.294L21.3963 15H19.1463L16.0384 5.75H15.9474L12.8452 15ZM12.919 10.4375H19.0554V12.1307H12.919V10.4375ZM22.929 3.36364H25.5085L28.9631 11.7955H29.0994L32.554 3.36364H35.1335V15H33.1108V7.00568H33.0028L29.7869 14.9659H28.2756L25.0597 6.98864H24.9517V15H22.929V3.36364Z" fill="white"/>
<path d="M63.642 15H61.392L65.4886 3.36364H68.0909L72.1932 15H69.9432L66.8352 5.75H66.7443L63.642 15ZM63.7159 10.4375H69.8523V12.1307H63.7159V10.4375ZM71.7429 3.36364H74.1236L76.9702 8.51136H77.0838L79.9304 3.36364H82.3111L78.0781 10.6591V15H75.9759V10.6591L71.7429 3.36364ZM93.5455 9.18182C93.5455 10.4356 93.3106 11.5095 92.8409 12.4034C92.375 13.2936 91.7386 13.9754 90.9318 14.4489C90.1288 14.9223 89.2178 15.1591 88.1989 15.1591C87.1799 15.1591 86.267 14.9223 85.4602 14.4489C84.6572 13.9716 84.0208 13.2879 83.5511 12.3977C83.0852 11.5038 82.8523 10.4318 82.8523 9.18182C82.8523 7.92803 83.0852 6.85606 83.5511 5.96591C84.0208 5.07197 84.6572 4.38826 85.4602 3.91477C86.267 3.44129 87.1799 3.20455 88.1989 3.20455C89.2178 3.20455 90.1288 3.44129 90.9318 3.91477C91.7386 4.38826 92.375 5.07197 92.8409 5.96591C93.3106 6.85606 93.5455 7.92803 93.5455 9.18182ZM91.4261 9.18182C91.4261 8.29924 91.2879 7.55492 91.0114 6.94886C90.7386 6.33902 90.3598 5.87879 89.875 5.56818C89.3902 5.25379 88.8314 5.09659 88.1989 5.09659C87.5663 5.09659 87.0076 5.25379 86.5227 5.56818C86.0379 5.87879 85.6572 6.33902 85.3807 6.94886C85.108 7.55492 84.9716 8.29924 84.9716 9.18182C84.9716 10.0644 85.108 10.8106 85.3807 11.4205C85.6572 12.0265 86.0379 12.4867 86.5227 12.8011C87.0076 13.1117 87.5663 13.267 88.1989 13.267C88.8314 13.267 89.3902 13.1117 89.875 12.8011C90.3598 12.4867 90.7386 12.0265 91.0114 11.4205C91.2879 10.8106 91.4261 10.0644 91.4261 9.18182Z" fill="white"/>
<circle cx="99" cy="13" r="2" fill="#E7C285"/>
</svg>
